<svg fill="#FFFFFF" xmlns="http://www.w3.org/2000/svg"  viewBox="0 0 16 16" width="64px" height="64px"><path d="M 4 2 C 2.894531 2 2 2.894531 2 4 L 2 12 C 2 13.105469 2.894531 14 4 14 L 12 14 C 13.105469 14 14 13.105469 14 12 L 14 6 L 13 7 L 13 12 C 13 12.550781 12.550781 13 12 13 L 4 13 C 3.449219 13 3 12.550781 3 12 L 3 4 C 3 3.449219 3.449219 3 4 3 L 11 3 L 12 2 Z M 13.5 2.792969 L 7.5 8.792969 L 5.851563 7.148438 L 5.5 6.792969 L 4.792969 7.5 L 5.148438 7.851563 L 7.5 10.207031 L 14.207031 3.5 Z"/></svg>